<?xml version="1.0" standalone="no"?>
<!DOCTYPE svg PUBLIC "-//W3C//DTD SVG 1.1//EN" "http://www.w3.org/Graphics/SVG/1.1/DTD/svg11.dtd" >
<svg xmlns="http://www.w3.org/2000/svg">
<metadata>Generated by IcoMoon</metadata>
<defs>
<font id="icomoon" horiz-adv-x="1024">
<font-face units-per-em="1024" ascent="960" descent="-64" />
<missing-glyph horiz-adv-x="1024" />
<glyph unicode="&#x20;" horiz-adv-x="512" d="" />
<glyph unicode="&#xe900;" glyph-name="arrow_left" horiz-adv-x="1010" d="M766.036 472.359h-460.751l178.611 178.779c9.85 9.86 9.85 25.756 0 35.616s-25.732 9.86-35.582 0l-223.34-223.549c-4.723-4.729-7.338-11.068-7.338-17.808 0-6.742 2.615-13.079 7.338-17.808l223.34-223.549c4.925-4.931 11.358-7.345 17.791-7.345s12.866 2.414 17.791 7.345c9.85 9.858 9.85 25.756 0 35.614l-182.331 182.502h464.471c13.87 0 25.129 11.268 25.129 25.151 0 13.884-11.258 25.052-25.129 25.052z" />
<glyph unicode="&#xe901;" glyph-name="arrow_right" horiz-adv-x="1010" d="M786.833 463.204l-223.34 223.549c-9.85 9.86-25.732 9.86-35.582 0s-9.85-25.756 0-35.616l182.331-182.501h-464.47c-13.872 0-25.129-11.268-25.129-25.153s11.257-25.151 25.129-25.151h460.751l-178.612-178.779c-9.85-9.86-9.85-25.756 0-35.616 4.925-4.929 11.358-7.345 17.791-7.345s12.866 2.416 17.791 7.345l223.34 223.549c4.723 4.729 7.338 11.068 7.338 17.808 0 6.742-2.615 13.18-7.338 17.909z" />
<glyph unicode="&#xe902;" glyph-name="aulas" horiz-adv-x="1010" d="M775.895 839.449h-538.548c-47.944 0-86.844-39.036-86.844-86.925v-564.607c0-2.818 0.504-5.433 1.307-7.948-0.905-5.433-1.307-10.967-1.307-16.701 0-24.75 9.147-46.481 26.335-62.78 33.973-32.194 90.461-35.715 113.177-35.715 3.921 0 6.836 0.101 8.443 0.201h480.451c46.337 0 83.929 37.728 83.929 84.007v603.543c0 47.89-38.999 86.925-86.943 86.925zM199.453 752.524c0 20.926 16.987 37.93 37.894 37.93h35.782v-520.341c-20.202-2.214-48.95-7.848-73.676-22.536v504.947zM813.788 148.981c0-19.316-15.681-35.011-34.979-35.011h-481.054c-0.403 0-0.905 0-1.307 0-16.484-0.805-64.429 1.509-86.139 22.134-7.538 7.143-10.955 15.795-10.955 27.164 0 13.783 4.12 24.346 13.067 33.099 21.811 21.43 66.237 25.958 83.828 25.958 0.502 0 1.004 0 1.407 0h516.033v-73.344h0.101zM813.788 271.319h-491.709v519.134h453.816c20.906 0 37.894-17.004 37.894-37.93v-481.204zM725.236 667.31h-319.43c-13.569 0-24.524-10.967-24.524-24.548 0-13.583 10.955-24.548 24.524-24.548h319.43c13.569 0 24.526 10.965 24.526 24.548 0 13.581-10.957 24.548-24.526 24.548z" />
<glyph unicode="&#xe903;" glyph-name="aumentarimg" d="M565.158 525.623h-97.628v97.721c0 13.158-10.598 23.767-23.745 23.767s-23.745-10.608-23.745-23.767v-97.721h-97.628c-13.146 0-23.744-10.608-23.744-23.767s10.598-23.767 23.744-23.767h97.628v-97.721c0-13.158 10.6-23.767 23.745-23.767 13.147 0 23.745 10.608 23.745 23.767v97.721h97.628c13.146 0 23.744 10.608 23.744 23.767s-10.598 23.767-23.744 23.767zM433.778 832c-184.323 0-334.222-146.709-334.222-327.111s149.899-327.111 334.222-327.111c184.323 0 334.222 146.709 334.222 327.111s-149.899 327.111-334.222 327.111zM433.778 216.294c-162.598 0-294.867 129.455-294.867 288.594s132.269 288.594 294.867 288.594c162.598 0 294.868-129.455 294.868-288.594s-132.27-288.594-294.868-288.594zM904.111 93.151l-238.443 209.769c-4.127 3.631-13.769-0.594-21.558-9.448s-10.752-18.955-6.625-22.586l238.443-209.769c4.127-3.631 13.77 0.594 21.558 9.448 7.79 8.853 10.752 18.955 6.625 22.586z" />
<glyph unicode="&#xe904;" glyph-name="aumentartxt" d="M692.112 601.085v72.035c0 28.673-23.319 52.014-51.966 52.014h-437.531c-28.647 0-51.966-23.34-51.966-52.014v-72.035c0-28.673 23.319-52.014 51.966-52.014h106.242l24.524 0.202v-330.295c0-28.672 23.319-52.014 51.966-52.014h71.968c28.645 0 51.964 23.342 51.964 52.014v330.194l130.867-0.101c28.647 0 51.966 23.34 51.966 52.014zM485.96 596.156c-6.332 0.1-12.162-2.416-16.585-6.841-4.423-4.427-6.935-10.362-6.935-16.6v-353.736c0-2.817-2.312-5.13-5.126-5.13h-71.968c-2.815 0-5.126 2.313-5.126 5.13v353.936c0 6.238-2.514 12.274-6.937 16.6-4.421 4.326-10.352 6.841-16.484 6.841-0.101 0-0.101 0-0.202 0l-154.085-0.401c-2.814 0-5.126 2.313-5.126 5.13v72.035c0 2.817 2.312 5.131 5.126 5.131h437.533c2.814 0 5.126-2.315 5.126-5.131v-72.035c0-2.817-2.312-5.13-5.126-5.13l-154.087 0.201zM840.87 369.085h-96.291v96.382c0 12.978-10.453 23.443-23.419 23.443s-23.42-10.464-23.42-23.443v-96.382h-96.291c-12.967 0-23.419-10.462-23.419-23.441 0-12.978 10.452-23.441 23.419-23.441h96.291v-96.382c0-12.978 10.453-23.441 23.42-23.441s23.419 10.463 23.419 23.441v96.382h96.291c12.967 0 23.42 10.463 23.42 23.441 0 12.98-10.453 23.441-23.42 23.441z" />
<glyph unicode="&#xe905;" glyph-name="avatar" horiz-adv-x="1010" d="M502.564 848.268c-222.033 0-402.051-180.187-402.051-402.429s180.018-402.429 402.051-402.429c222.034 0 402.052 180.188 402.052 402.429s-180.018 402.429-402.052 402.429zM502.564 797.965c193.99 0 351.796-157.954 351.796-352.126 0-78.273-25.732-150.71-69.053-209.264-71.968 76.964-166.852 116.101-282.743 116.101-97.899 0-204.141-44.569-282.541-116.301-43.521 58.553-69.253 131.090-69.253 209.464 0 194.171 157.805 352.126 351.794 352.126zM502.564 93.714c-97.597 0-186.048 40.041-249.874 104.531 69.454 64.087 163.534 104.128 249.874 104.128 103.127 0 186.954-35.112 249.675-104.229-63.726-64.488-152.178-104.43-249.675-104.43zM502.564 392.719c91.467 0 165.546 74.147 165.546 165.7s-74.079 165.7-165.546 165.7c-91.466 0-165.544-74.147-165.544-165.7s74.079-165.7 165.544-165.7zM502.564 673.816c63.625 0 115.288-51.813 115.288-115.396 0-63.585-51.663-115.396-115.288-115.396-63.523 0-115.287 51.812-115.287 115.396 0 63.583 51.764 115.396 115.287 115.396z" />
<glyph unicode="&#xe906;" glyph-name="certo" horiz-adv-x="1010" d="M737.089 602.719c-10.453 7.848-25.23 5.736-33.070-4.828l-229.17-306.652-141.623 166.807c-8.443 9.961-23.419 11.167-33.37 2.717-9.951-8.452-11.157-23.441-2.714-33.402l160.821-189.343c4.524-5.332 11.056-8.349 17.992-8.349 0.202 0 0.504 0 0.704 0 7.237 0.201 13.87 3.721 18.192 9.456l246.962 330.495c7.94 10.362 5.729 25.252-4.724 33.099zM504.401 854.54c-221.732 0-402.052-180.49-402.052-402.429 0-221.94 180.32-402.429 402.052-402.429s402.050 180.489 402.050 402.429c0 221.939-180.319 402.429-402.050 402.429zM504.401 97.068c-195.598 0-354.711 159.261-354.711 355.043s159.113 355.043 354.711 355.043c195.597 0 354.709-159.261 354.709-355.043s-159.113-355.043-354.709-355.043z" />
<glyph unicode="&#xe907;" glyph-name="contrair" horiz-adv-x="1010" d="M727.8 330.199c-6.433 0-12.866 2.414-17.791 7.343l-205.549 205.842-205.649-205.842c-9.85-9.858-25.732-9.858-35.582 0-9.85 9.86-9.85 25.756 0 35.616l223.34 223.549c9.447 9.457 26.133 9.457 35.582 0l223.339-223.549c9.85-9.86 9.85-25.756 0-35.616-4.824-4.828-11.257-7.343-17.69-7.343z" />
<glyph unicode="&#xe908;" glyph-name="contraste" d="M916.706 446.352c0 147.491-78.702 276.971-196.302 348.403-0.703 0.504-1.407 0.805-2.11 1.208-61.113 36.621-132.476 57.748-208.666 57.748-224.445 0-407.077-182.803-407.077-407.46 0-224.656 182.631-407.458 407.077-407.458 1.609 0 3.216 0.1 4.825 0.1 1.909-0.403 3.82-0.805 5.729-0.805 2.413 0 4.623 0.403 6.836 1.107 216.403 9.356 389.688 188.337 389.688 407.158zM817.5 263.75v365.304c31.862-53.523 50.155-116.001 50.155-182.602 0-66.804-18.394-129.18-50.155-182.703zM544.807 803.004c13.269-1.307 26.436-3.32 39.301-6.137v-701.030c-12.865-2.717-25.931-4.83-39.301-6.137v713.304zM633.159 782.682c17.188-6.339 33.772-13.985 49.653-22.838v-626.985c-15.88-8.853-32.364-16.499-49.653-22.838v672.661zM151.601 446.352c0 192.965 153.182 350.616 344.157 357.961v-715.922c-190.975 7.345-344.157 165.097-344.157 357.961zM730.757 164.853v562.998c15.077-11.871 29.249-24.951 42.215-39.035-0.101-0.704-0.202-1.408-0.202-2.113v-481.406c0-0.502 0.101-1.006 0.101-1.408-12.967-14.186-27.038-27.164-42.114-39.035z" />
<glyph unicode="&#xe909;" glyph-name="diminuirtxt" d="M464.080 197.336h-64.202c-28.025 0-50.853 22.848-50.853 50.9v280.717l-14.674-0.102h-93.146c-28.025 0-50.852 22.849-50.852 50.9v64.263c0 28.050 22.827 50.9 50.852 50.9h381.343c28.026 0 50.853-22.849 50.853-50.9v-64.263c0-28.050-22.827-50.9-50.853-50.9l-107.718 0.102v-280.717c0-28.153-22.828-50.9-50.751-50.9zM400.59 235.792h62.674v318.153c0 7.753 3.056 15.198 8.56 20.604 5.402 5.407 12.84 8.466 20.484 8.466h0.101l141.959-0.203v62.733h-405.087v-62.733l141.857 0.306c0.102 0 0.102 0 0.203 0 7.644 0 14.982-3.061 20.484-8.466 5.503-5.508 8.56-12.853 8.56-20.604v-318.255h0.203zM805.577 339.327h-217.372c-14.878 0-26.904 12.036-26.904 26.928 0 14.894 12.026 26.93 26.904 26.93h217.372c14.878 0 26.904-12.036 26.904-26.93 0-14.892-12.026-26.928-26.904-26.928z" />
<glyph unicode="&#xe90a;" glyph-name="down" d="M507.469 293.253c-6.030 0-12.061 2.313-16.684 6.942l-188.764 188.939c-9.247 9.257-9.247 24.246 0 33.503 9.247 9.255 24.224 9.255 33.471 0l171.977-172.14 171.979 172.039c9.247 9.255 24.224 9.255 33.471 0s9.247-24.246 0-33.502l-188.764-188.941c-4.623-4.528-10.654-6.841-16.686-6.841zM507.469 49.682c-221.731 0-402.051 180.489-402.051 402.429s180.32 402.429 402.051 402.429 402.050-180.49 402.050-402.429c0-221.94-180.319-402.429-402.050-402.429zM507.469 807.155c-195.598 0-354.709-159.261-354.709-355.043s159.111-355.043 354.709-355.043c195.598 0 354.709 159.261 354.709 355.043s-159.111 355.043-354.709 355.043z" />
<glyph unicode="&#xe90b;" glyph-name="errado" horiz-adv-x="1010" d="M507.407 854.54c-221.731 0-402.051-180.49-402.051-402.429 0-221.94 180.32-402.429 402.051-402.429s402.052 180.489 402.052 402.429c0 221.939-180.321 402.429-402.052 402.429zM507.407 97.068c-195.598 0-354.709 159.261-354.709 355.043s159.111 355.043 354.709 355.043c195.598 0 354.711-159.261 354.711-355.043s-159.113-355.043-354.711-355.043zM540.878 453.117l130.466 138.939c8.945 9.558 8.443 24.548-1.006 33.502-9.548 8.955-24.524 8.452-33.471-1.006l-130.466-138.939-138.808 130.588c-9.548 8.954-24.526 8.452-33.471-1.006-8.945-9.558-8.443-24.548 1.004-33.502l138.81-130.588-130.466-138.939c-8.947-9.558-8.443-24.549 1.004-33.503 4.524-4.326 10.354-6.439 16.183-6.439 6.332 0 12.563 2.515 17.287 7.444l130.466 138.939 138.808-130.588c4.524-4.326 10.354-6.439 16.183-6.439 6.333 0 12.564 2.515 17.289 7.446 8.945 9.557 8.443 24.548-1.006 33.502l-138.808 130.588z" />
<glyph unicode="&#xe90c;" glyph-name="exemplo" d="M660.8 91.321c-7.136 0-14.374 1.609-21.107 4.828-17.39 8.251-28.244 25.353-28.244 44.569v84.108h-378.231c-60.911 0-110.564 49.598-110.564 110.668v319.227c0 61.068 49.553 110.668 110.564 110.668h552.821c61.011 0 110.564-49.599 110.564-110.668v-352.931c0-38.23-16.886-74.046-46.337-98.293-0.703-0.605-1.508-1.208-2.312-1.711l-157.202-100.304c-8.846-6.641-19.299-10.161-29.953-10.161zM233.218 718.708c-35.28 0-63.926-28.673-63.926-63.986v-319.328c0-35.313 28.645-63.986 63.926-63.986h401.649c12.866 0 23.319-10.463 23.319-23.342v-107.448c0-0.502 0-1.609 1.508-2.313s2.312 0 2.714 0.302c0.703 0.603 1.507 1.208 2.31 1.71l156.902 100.105c17.992 15.392 28.344 37.627 28.344 61.471v352.83c0 35.313-28.645 63.986-63.926 63.986h-552.821zM754.076 527.756h-464.973c-12.866 0-23.319 10.463-23.319 23.34 0 12.879 10.453 23.34 23.319 23.34h464.973c12.866 0 23.319-10.462 23.319-23.34s-10.453-23.34-23.319-23.34zM754.076 408.434h-464.973c-12.866 0-23.319 10.463-23.319 23.342 0 12.877 10.453 23.34 23.319 23.34h464.973c12.866 0 23.319-10.463 23.319-23.34 0-12.879-10.453-23.342-23.319-23.342z" />
<glyph unicode="&#xe90d;" glyph-name="exercicio" horiz-adv-x="1010" d="M886.962 128.948h-760.682c-13.167 0-23.822-10.665-23.822-23.844s10.655-23.845 23.822-23.845h760.682c13.168 0 23.821 10.665 23.821 23.845 0 13.179-10.654 23.844-23.821 23.844zM216.14 212.754h159.010c5.629 0 11.056 2.013 15.378 5.635l433.11 367.819c34.276 29.076 38.697 80.787 9.951 115.295l-70.46 84.61c-28.847 34.609-80.611 39.439-115.288 10.866l-446.879-368.323c-5.528-4.527-8.645-11.267-8.645-18.411v-173.648c0.101-13.179 10.756-23.844 23.823-23.844zM726.644 755.631l70.458-84.612c12.062-14.487 10.253-36.219-4.221-48.493l-15.077-12.776-114.886 137.931 15.176 12.476c14.675 12.073 36.386 10.060 48.549-4.527zM239.961 399.078l386.271 318.422 115.287-138.536-375.013-318.523h-126.545v138.637z" />
<glyph unicode="&#xe90e;" glyph-name="expandir" d="M507.469 279.795c-6.634 0-13.067 2.616-17.791 7.345l-223.339 223.549c-9.85 9.86-9.85 25.756 0 35.614 9.85 9.86 25.732 9.86 35.582 0l205.649-205.842 205.649 205.842c9.85 9.86 25.732 9.86 35.582 0 9.85-9.858 9.85-25.754 0-35.614l-223.34-223.549c-4.925-4.729-11.357-7.345-17.992-7.345z" />
<glyph unicode="&#xe90f;" glyph-name="filter" d="M209.698 620.352h88.352v-34.307c0-13.884 11.257-25.153 25.127-25.153 13.872 0 25.129 11.268 25.129 25.153v34.307h455.826c13.87 0 25.127 11.268 25.127 25.153 0 13.883-11.257 25.151-25.127 25.151h-455.826v45.172c0 13.884-11.257 25.153-25.129 25.153-13.87 0-25.127-11.268-25.127-25.153v-45.172h-88.352c-13.87 0-25.129-11.268-25.129-25.151s11.258-25.153 25.129-25.153zM809.56 265.007h-299.127v39.74c0 13.884-11.257 25.153-25.129 25.153-13.87 0-25.127-11.268-25.127-25.153v-39.74h-245.050c-13.872 0-25.129-11.268-25.129-25.151 0-13.884 11.257-25.153 25.129-25.153h245.050v-39.74c0-13.884 11.257-25.151 25.127-25.151 13.872 0 25.129 11.267 25.129 25.151v39.74h299.127c13.87 0 25.127 11.268 25.127 25.153 0 13.883-11.257 25.151-25.127 25.151zM679.898 355.353c13.87 0 25.129 11.267 25.129 25.151v39.74h104.534c13.87 0 25.127 11.268 25.127 25.153 0 13.883-11.257 25.151-25.127 25.151h-104.534v39.74c0 13.884-11.258 25.153-25.129 25.153s-25.129-11.268-25.129-25.153v-39.74h-439.642c-13.872 0-25.129-11.268-25.129-25.151s11.257-25.153 25.129-25.153h439.642v-39.74c0-13.884 11.258-25.151 25.129-25.151z" />
<glyph unicode="&#xe910;" glyph-name="home" d="M936.476 561.045l-378.286 264.396c-23.235 17.137-54.521 17.341-77.552 0.816l-389.598-265.111c-11.006-7.445-13.86-22.44-6.318-33.355 4.688-6.834 12.229-10.506 19.872-10.506 4.688 0 9.376 1.326 13.452 4.183l59.719 40.597v-406.080c0-54.369 45.451-98.638 101.4-98.638h469.188c55.846 0 101.399 44.27 101.399 98.638v407.202l59.413-41.516c10.904-7.65 25.884-4.897 33.426 5.916 7.438 10.812 4.789 25.808-6.116 33.458zM623.31 105.289h-219.307v277.759c0 19.891 16.203 36.109 36.075 36.109h147.157c19.871 0 36.075-16.218 36.075-36.109v-277.759zM801.55 590.32v-434.438c0-27.95-23.949-50.594-53.299-50.594h-76.84v277.759c0 46.411-37.706 84.154-84.075 84.154h-147.156c-46.369 0-84.075-37.743-84.075-84.154v-277.759h-76.84c-29.451 0-53.298 22.747-53.298 50.594v434.641c0 1.327-0.205 2.652-0.408 3.877l282.798 192.38c6.522 4.693 15.184 4.591 22.114-0.509l272.097-190.137c-0.713-1.836-1.018-3.775-1.018-5.814z" />
<glyph unicode="&#xe911;" glyph-name="info" horiz-adv-x="1010" d="M502.564 31.577c-227.259 0-412.102 185.017-412.102 412.49s184.843 412.49 412.102 412.49c227.261 0 412.102-185.017 412.102-412.49s-184.842-412.49-412.102-412.49zM502.564 808.064c-200.523 0-363.655-163.286-363.655-363.997s163.132-363.997 363.655-363.997c200.523 0 363.656 163.286 363.656 363.997s-163.133 363.997-363.656 363.997zM525.682 148.683h-46.537c-37.29 0-67.545 30.282-67.545 67.608v192.362c0 37.326 30.254 67.608 67.545 67.608h46.537c37.39 0 67.745-30.383 67.745-67.808v-191.959c0-37.426-30.355-67.81-67.745-67.81zM479.245 427.667c-10.553 0-19.097-8.551-19.097-19.115v-192.362c0-10.563 8.544-19.115 19.097-19.115h46.539c10.654 0 19.297 8.652 19.297 19.317v191.959c0 10.664-8.644 19.316-19.297 19.316h-46.539zM502.571 542.964c-50.156 0-90.864 40.846-90.864 90.948 0 50.203 40.809 90.949 90.864 90.949 50.156 0 90.864-40.846 90.864-90.949s-40.708-90.948-90.864-90.948zM502.571 676.369c-23.42 0-42.416-19.016-42.416-42.457s18.996-42.455 42.416-42.455c23.42 0 42.416 19.014 42.416 42.455s-18.996 42.457-42.416 42.457z" />
<glyph unicode="&#xe912;" glyph-name="left" horiz-adv-x="1010" d="M585.978 196.695c-6.433 0-12.865 2.414-17.79 7.345l-223.34 223.549c-4.724 4.729-7.338 11.066-7.338 17.808 0 6.639 2.613 13.079 7.338 17.808l223.34 223.549c9.85 9.86 25.73 9.86 35.58 0s9.85-25.756 0-35.616l-205.649-205.741 205.649-205.842c9.85-9.86 9.85-25.756 0-35.616-4.925-4.83-11.358-7.244-17.791-7.244z" />
<glyph unicode="&#xe913;" glyph-name="link" d="M848.718 481.904c-12.638 0-22.828-10.2-22.828-22.848v-275.413c0-26.419-21.402-47.839-47.795-47.839h-532.066c-26.395 0-47.795 21.42-47.795 47.839v532.567c0 26.419 21.4 47.839 47.795 47.839h267.918c12.636 0 22.827 10.2 22.827 22.849s-10.19 22.849-22.827 22.849h-267.918c-51.567 0-93.451-41.924-93.451-93.538v-532.464c0-51.614 41.884-93.538 93.451-93.538h532.066c51.463 0 93.45 41.924 93.45 93.538v275.412c0 12.547-10.19 22.747-22.827 22.747zM657.333 759.868l144.711-3.469-272.708-275.514c-8.866-8.977-8.765-23.461 0.101-32.336 4.484-4.386 10.293-6.63 16.102-6.63 5.911 0 11.719 2.244 16.203 6.733l267.409 270.209-3.261-136.074c-0.306-12.648 9.681-23.053 22.217-23.359 0.203 0 0.408 0 0.511 0 12.331 0 22.521 9.894 22.827 22.339l4.79 195.645c0.101 6.017-2.14 11.934-6.319 16.32s-9.884 6.936-15.999 7.039l-195.564 4.692c-0.205 0-0.408 0-0.511 0-12.331 0-22.521-9.894-22.827-22.339-0.203-12.547 9.681-22.95 22.318-23.256z" />
<glyph unicode="&#xe914;" glyph-name="menu" d="M812.172 631.028h-610.615c-13.87 0-25.127 11.268-25.127 25.153 0 13.883 11.257 25.151 25.127 25.151h610.615c13.872 0 25.129-11.268 25.129-25.151s-11.257-25.153-25.129-25.153zM817.7 425.487h-610.615c-13.87 0-25.127 11.268-25.127 25.153 0 13.883 11.257 25.151 25.127 25.151h610.615c13.872 0 25.129-11.268 25.129-25.151s-11.257-25.153-25.129-25.153zM817.7 214.313h-610.615c-13.87 0-25.127 11.267-25.127 25.151s11.257 25.153 25.127 25.153h610.615c13.872 0 25.129-11.268 25.129-25.153s-11.257-25.151-25.129-25.151z" />
<glyph unicode="&#xe915;" glyph-name="menu_topics" d="M357.318 635.728h466.948c14.063 0 25.478 11.425 25.478 25.5 0 14.077-11.415 25.502-25.478 25.502h-466.948c-14.063 0-25.478-11.425-25.478-25.502s11.415-25.5 25.478-25.5zM828.545 478.335h-466.947c-14.063 0-25.478-11.425-25.478-25.502s11.415-25.5 25.478-25.5h466.947c14.063 0 25.478 11.425 25.478 25.5 0 14.077-11.415 25.502-25.478 25.502zM828.545 264.226h-466.947c-14.063 0-25.478-11.425-25.478-25.5 0-14.077 11.415-25.502 25.478-25.502h466.947c14.063 0 25.478 11.425 25.478 25.502s-11.415 25.5-25.478 25.5zM194.266 635.728h52.89c14.064 0 25.478 11.425 25.478 25.5 0 14.077-11.413 25.502-25.478 25.502h-52.89c-14.064 0-25.478-11.425-25.478-25.502s11.413-25.5 25.478-25.5zM247.666 478.335h-52.89c-14.064 0-25.478-11.425-25.478-25.502s11.413-25.5 25.478-25.5h52.89c14.064 0 25.478 11.425 25.478 25.5 0 14.077-11.413 25.502-25.478 25.502zM247.666 264.226h-52.89c-14.064 0-25.478-11.425-25.478-25.5 0-14.077 11.413-25.502 25.478-25.502h52.89c14.064 0 25.478 11.425 25.478 25.502s-11.413 25.5-25.478 25.5z" />
<glyph unicode="&#xe916;" glyph-name="ouvir" d="M336.744 23.316c-12.127 0-24.764 1.122-38.012 3.265-70.623 11.73-146.953 83.541-146.953 178.916 0 13.259 10.701 23.972 23.949 23.972s23.949-10.712 23.949-23.972c0-74.26 62.164-124.241 107.004-131.688 68.177-11.322 143.488 2.652 184.252 193.196 11.005 51.614 37.604 104.963 63.285 156.679 41.172 82.725 79.999 160.86 57.579 225.634-13.451 38.864-48.713 71.403-107.718 99.352-64.814 30.805-122.698 34.785-171.819 11.935-96.508-44.78-132.991-178.61-133.399-179.937-3.362-12.75-16.509-20.4-29.247-17.034-12.739 3.366-20.382 16.422-17.020 29.173 1.631 6.427 42.394 156.577 159.283 211.048 62.674 29.173 134.215 25.195 212.582-12.036 71.235-33.764 114.546-75.28 132.379-126.996 28.942-83.746-16.203-174.632-59.922-262.559-24.356-48.963-49.527-99.659-59.311-145.357-33.527-156.679-99.361-233.591-200.862-233.591zM344.998 125.116c-10.699 0-20.483 7.243-23.132 18.158-3.16 12.853 4.585 25.808 17.426 29.072 41.17 10.303 52.686 23.359 81.323 137.91 8.458 33.967 29.656 72.525 51.974 113.327 35.566 64.977 75.922 138.624 57.782 186.668-8.56 22.645-30.266 39.885-66.342 52.838-76.329 27.338-132.685 13.975-167.437-39.68-6.522-10.098-4.178-19.482-2.139-24.276 3.668-8.671 11.514-14.996 20.891-16.934 54.724-11.118 88.66-48.451 95.794-105.37 0.102-1.020 0.205-1.938 0.205-2.958 0-104.86-104.865-153.516-160.303-164.635-12.944-2.55-25.58 5.814-28.127 18.768s5.808 25.502 18.751 28.154c5.096 1.020 120.559 25.808 121.883 116.285-4.891 35.905-23.235 56-57.68 62.936-24.969 5.1-45.757 22.033-55.541 45.291-9.579 22.849-7.337 47.942 6.114 68.853 27.21 42.027 92.534 105.576 223.589 58.755 49.324-17.647 81.323-44.881 94.979-80.889 26.089-68.649-19.974-152.701-60.534-226.756-20.789-38.049-40.56-73.954-47.489-101.904-28.331-113.53-44.636-154.843-116.176-172.693-1.937-0.714-3.873-0.919-5.81-0.919zM736.431 535.278c-5.198 0-10.395 1.631-14.777 5.1-10.395 8.159-12.127 23.256-3.975 33.559 1.121 1.428 29.147 39.272 16.102 100.169-13.045 60.794-54.114 83.849-55.846 84.766-11.516 6.325-15.898 20.708-9.783 32.336 6.114 11.63 20.382 16.117 32.101 9.997 2.549-1.327 62.471-33.458 80.304-117.102 17.936-83.644-23.541-137.502-25.273-139.746-4.79-5.916-11.719-9.078-18.853-9.078zM834.874 489.58c-5.197 0-10.395 1.631-14.777 5.1-10.394 8.159-12.127 23.256-3.974 33.559 1.833 2.448 47.285 62.936 26.496 160.146s-87.030 133.729-89.883 135.259c-11.618 6.222-16 20.707-9.886 32.335s20.484 16.117 32.101 10.098c3.567-1.938 88.661-47.534 114.342-167.593 25.782-120.060-33.121-196.562-35.668-199.726-4.688-6.017-11.618-9.179-18.752-9.179z" />
<glyph unicode="&#xe917;" glyph-name="press" horiz-adv-x="1010" d="M821.728 634.74h-87.445v183.909c0 13.381-10.856 24.146-24.123 24.146h-406.977c-13.368 0-24.123-10.865-24.123-24.146v-183.909h-87.447c-55.985 0-101.518-45.575-101.518-101.614v-223.448c0-56.038 45.532-101.613 101.518-101.613h87.447v-135.82c0-13.381 10.854-24.145 24.123-24.145h406.977c13.368 0 24.123 10.866 24.123 24.145v135.82h87.445c55.986 0 101.519 45.575 101.519 101.613v223.448c0 56.039-45.533 101.614-101.519 101.614zM327.305 794.402h358.63v-159.663h-358.63v159.663zM685.936 96.389h-358.63v257.153h358.63v-257.153zM874.9 309.677c0-29.378-23.821-53.221-53.172-53.221h-87.445v121.333c0 13.381-10.856 24.145-24.123 24.145h-406.977c-13.368 0-24.123-10.866-24.123-24.145v-121.333h-87.447c-29.35 0-53.171 23.844-53.171 53.221v223.448c0 29.378 23.822 53.221 53.171 53.221h630.317c29.35 0 53.171-23.844 53.171-53.221v-223.448h-0.201zM230.411 532.925h-29.048c-13.368 0-24.123-10.866-24.123-24.145 0-13.381 10.854-24.147 24.123-24.147h29.048c13.368 0 24.123 10.866 24.123 24.147 0.101 13.28-10.755 24.145-24.123 24.145z" />
<glyph unicode="&#xe918;" glyph-name="resultados" d="M299.715 34.271h-78.266c-36.279 0-65.833 29.581-65.833 65.894v291.122c0 36.314 29.554 65.894 65.833 65.894h78.266c36.279 0 65.833-29.581 65.833-65.894v-291.122c0-36.314-29.554-65.894-65.833-65.894zM221.449 409.343c-9.987 0-18.038-8.058-18.038-18.055v-291.122c0-9.995 8.051-18.054 18.038-18.054h78.266c9.987 0 18.038 8.058 18.038 18.054v291.122c0 9.997-8.051 18.055-18.038 18.055h-78.266zM554.486 34.271h-78.266c-36.279 0-65.833 29.581-65.833 65.894v371.502c0 36.314 29.554 65.894 65.833 65.894h78.266c36.279 0 65.833-29.581 65.833-65.894v-371.502c0-36.314-29.554-65.894-65.833-65.894zM476.22 489.62c-9.987 0-18.038-8.058-18.038-18.055v-371.5c0-9.997 8.051-18.055 18.038-18.055h78.266c9.987 0 18.038 8.058 18.038 18.055v371.5c0 9.997-8.051 18.055-18.038 18.055h-78.266zM809.259 34.271h-78.266c-36.279 0-65.833 29.581-65.833 65.894v518.797c0 36.314 29.554 65.894 65.833 65.894h78.266c36.279 0 65.833-29.581 65.833-65.894v-518.797c-0.102-36.314-29.554-65.894-65.833-65.894zM730.992 637.016c-9.987 0-18.038-8.058-18.038-18.054v-518.797c0-9.995 8.051-18.054 18.038-18.054h78.266c9.987 0 18.038 8.058 18.038 18.054v518.797c0 9.995-8.051 18.054-18.038 18.054h-78.266zM156.329 509.511c-10.395 0-19.873 6.731-22.93 17.239-3.669 12.648 3.567 25.909 16.203 29.683l271.996 79.461 157.754 157.904c3.261 3.264 7.337 5.508 11.822 6.427l266.288 57.938c12.84 2.754 25.579-5.406 28.432-18.259 2.752-12.955-5.4-25.604-18.241-28.459l-259.46-56.408-157.143-157.292c-2.853-2.856-6.319-4.895-10.192-6.017l-277.803-81.298c-2.243-0.612-4.484-0.917-6.726-0.917z" />
<glyph unicode="&#xe919;" glyph-name="right" d="M425.953 196.695c-6.433 0-12.866 2.416-17.791 7.345-9.851 9.86-9.851 25.756 0 35.616l205.649 205.741-205.649 205.842c-9.851 9.86-9.851 25.756 0 35.616 9.85 9.858 25.73 9.858 35.58 0l223.34-223.55c4.724-4.729 7.338-11.066 7.338-17.806 0-6.641-2.613-13.079-7.338-17.808l-223.34-223.549c-4.925-5.030-11.357-7.446-17.79-7.446z" />
<glyph unicode="&#xe91a;" glyph-name="search" horiz-adv-x="1010" d="M187.356 359.88c53.976-57.95 127.351-91.452 206.454-94.268 3.518-0.101 7.137-0.202 10.655-0.202 36.485 0 71.966 6.641 105.236 19.317 0.201-0.202 0.302-0.403 0.403-0.504l204.141-217.009c15.68-16.802 37.090-25.353 58.498-25.353 19.6 0 39.201 7.143 54.579 21.529l44.426 41.451c32.264 30.082 34.074 80.888 4.020 113.183l-203.74 216.607c17.289 36.219 27.139 75.859 28.546 117.209 2.815 79.178-25.429 154.733-79.405 212.783-53.976 57.95-127.349 91.453-206.454 94.27-79.103 2.817-154.589-25.454-212.584-79.479-119.611-111.675-126.245-299.81-14.776-419.533zM556.942 307.866c17.489 10.564 34.074 23.039 49.452 37.326 14.574 13.581 27.641 28.471 38.999 44.367l193.687-205.842c11.157-11.972 10.453-30.786-1.608-42.054l-44.426-41.45c-11.961-11.167-30.857-10.564-42.116 1.508l-193.989 206.145zM236.306 742.49c45.934 42.858 105.238 66.199 167.655 66.199 2.915 0 5.931-0.101 8.846-0.202 65.735-2.313 126.646-30.082 171.475-78.271 44.829-48.191 68.247-110.87 65.936-176.667s-30.054-126.766-78.199-171.636c-48.146-44.871-110.766-68.312-176.501-65.998s-126.646 30.080-171.475 78.271c-92.471 99.401-87.044 255.644 12.263 348.303z" />
<glyph unicode="&#xe91b;" glyph-name="solucao" horiz-adv-x="1010" d="M765.004 76.501h-539.553c-52.267 0-94.784 42.556-94.784 94.873v540.059c0 52.317 42.517 94.873 94.784 94.873h438.337c12.765 0 23.117-10.363 23.117-23.14s-10.352-23.14-23.117-23.14h-438.337c-26.738 0-48.448-21.731-48.448-48.493v-540.060c0-26.761 21.71-48.493 48.448-48.493h539.553c26.736 0 48.446 21.731 48.446 48.493v270.030c0 12.778 10.354 23.14 23.119 23.14s23.119-10.362 23.119-23.14v-270.030c0-52.416-42.517-94.972-94.684-94.972zM488.493 233.851c-21.51 0-41.814 10.161-54.679 27.466l-174.39 234.617c-7.639 10.261-5.528 24.749 4.723 32.395 10.253 7.646 24.726 5.534 32.365-4.729l174.39-234.615c4.322-5.835 10.955-9.055 18.394-8.854 7.338 0.302 13.771 3.923 17.69 10.060l324.858 508.771c6.836 10.765 21.208 13.884 31.963 7.043s13.87-21.228 7.036-31.994l-324.858-508.771c-12.061-18.913-32.667-30.685-54.98-31.49-0.905 0.101-1.709 0.101-2.512 0.101z" />
<glyph unicode="&#xe91c;" glyph-name="topicos" d="M856.096 598.193c-0.401 5.433-2.312 10.765-6.131 15.091l-196.703 221.537c-5.83 6.54-14.473 9.457-22.917 8.149-1.206 0.201-2.512 0.403-3.719 0.403h-351.193c-62.116 0-112.574-50.505-112.574-112.68v-557.163c0-62.176 50.458-112.681 112.574-112.681h468.39c62.116 0 112.574 50.504 112.574 112.681v422.047c0 0.906-0.201 1.811-0.302 2.616zM659.694 751.216l114.584-128.978-114.584 0.804v128.174zM743.824 111.556h-468.39c-34.074 0-61.916 27.767-61.916 61.974v557.163c0 34.106 27.742 61.974 61.916 61.974h333.602v-194.776c0-13.985 11.257-25.252 25.129-25.353l171.475-1.208v-397.701c0.1-34.206-27.742-62.074-61.816-62.074zM717.59 447.282h-415.922c-13.971 0-25.328-11.369-25.328-25.353s11.357-25.353 25.328-25.353h415.922c13.971 0 25.329 11.369 25.329 25.353s-11.257 25.353-25.329 25.353zM717.59 313.474h-415.922c-13.971 0-25.328-11.369-25.328-25.353s11.357-25.353 25.328-25.353h415.922c13.971 0 25.329 11.369 25.329 25.353s-11.257 25.353-25.329 25.353z" />
<glyph unicode="&#xe91d;" glyph-name="up" horiz-adv-x="1010" d="M693.224 351.001c-6.030 0-12.062 2.315-16.686 6.942l-171.977 172.139-171.977-172.139c-9.247-9.255-24.224-9.255-33.471 0s-9.247 24.246 0 33.502l188.762 188.941c9.248 9.257 24.224 9.257 33.471 0l188.764-188.941c9.247-9.255 9.247-24.246 0-33.502-4.824-4.628-10.856-6.942-16.886-6.942zM504.46 49.682c-221.731 0-402.051 180.489-402.051 402.429s180.32 402.429 402.051 402.429c221.732 0 402.052-180.49 402.052-402.429s-180.319-402.429-402.052-402.429zM504.46 807.155c-195.598 0-354.709-159.261-354.709-355.043s159.111-355.043 354.709-355.043c195.598 0 354.711 159.261 354.711 355.043s-159.113 355.043-354.711 355.043z" />
<glyph unicode="&#xe91e;" glyph-name="zoomin" d="M359.010 757.844h-157.403c-13.87 0-25.127-11.268-25.127-25.153v-151.112c0-13.884 11.257-25.153 25.127-25.153 13.872 0 25.129 11.268 25.129 25.153v125.96h132.274c13.872 0 25.129 11.268 25.129 25.151s-11.257 25.153-25.129 25.153zM813.328 761.163h-150.97c-13.872 0-25.129-11.268-25.129-25.151s11.257-25.153 25.129-25.153h125.843v-132.398c0-13.884 11.257-25.153 25.127-25.153 13.872 0 25.129 11.268 25.129 25.153v157.55c0 13.883-11.257 25.151-25.129 25.151zM813.328 340.424c-13.87 0-25.129-11.268-25.129-25.151v-125.96h-132.273c-13.872 0-25.129-11.268-25.129-25.153 0-13.883 11.257-25.151 25.129-25.151h157.401c13.87 0 25.129 11.268 25.129 25.151v151.113c0 13.984-11.258 25.151-25.129 25.151zM352.478 186.093h-125.843v132.399c0 13.883-11.257 25.151-25.129 25.151-13.87 0-25.127-11.268-25.127-25.151v-157.552c0-13.883 11.257-25.151 25.127-25.151h150.971c13.87 0 25.127 11.268 25.127 25.151 0 13.884-11.156 25.153-25.127 25.153z" />
<glyph unicode="&#xe91f;" glyph-name="zoomout" horiz-adv-x="1010" d="M377.212 535.2h-157.403c-13.87 0-25.127 11.268-25.127 25.151s11.257 25.153 25.127 25.153h132.276v125.96c0 13.883 11.257 25.151 25.127 25.151 13.872 0 25.129-11.268 25.129-25.151v-151.113c0-13.883-11.257-25.151-25.129-25.151zM789.114 531.981h-150.97c-13.872 0-25.129 11.268-25.129 25.151v157.552c0 13.883 11.257 25.151 25.129 25.151 13.87 0 25.127-11.268 25.127-25.151v-132.399h125.843c13.87 0 25.129-11.268 25.129-25.153 0-13.883-11.258-25.151-25.129-25.151zM631.71 160.337c-13.87 0-25.127 11.268-25.127 25.151v151.113c0 13.883 11.257 25.151 25.127 25.151h157.404c13.87 0 25.129-11.268 25.129-25.151 0-13.884-11.258-25.153-25.129-25.153h-132.276v-125.96c0-13.883-11.257-25.151-25.129-25.151zM370.781 157.118c-13.872 0-25.129 11.268-25.129 25.153v132.399h-125.843c-13.87 0-25.127 11.267-25.127 25.151s11.257 25.153 25.127 25.153h150.971c13.87 0 25.127-11.268 25.127-25.153v-157.55c0-13.884-11.257-25.153-25.127-25.153z" />
</font>
</defs>
</svg>
